<?xml version="1.0" encoding="iso-8859-1"?>
<!-- Generator: Adobe Illustrator 18.0.0, SVG Export Plug-In . SVG Version: 6.00 Build 0)  -->
<!DOCTYPE svg PUBLIC "-//W3C//DTD SVG 1.1//EN" "http://www.w3.org/Graphics/SVG/1.1/DTD/svg11.dtd">
<svg version="1.1" id="Capa_1" xmlns="http://www.w3.org/2000/svg" xmlns:xlink="http://www.w3.org/1999/xlink" x="0px" y="0px"
	 viewBox="0 0 359.945 359.945" style="enable-background:new 0 0 359.945 359.945;" xml:space="preserve">
<g>
	<g>
		<path d="M87.818,87.847c3.95-20.024,9.293-38.556,15.929-54.83c3.358-8.258,7.005-15.769,10.907-22.567
			C66.37,28.017,27.995,66.386,10.427,114.68c6.792-3.91,14.313-7.539,22.568-10.901C49.271,97.137,67.791,91.802,87.818,87.847z"/>
	</g>
	<g>
		<path d="M196.13,14.249c-7.509-9.315-15.198-14.226-22.145-14.226c-13.193,0-29.079,17.755-41.346,49.779
			c15.571-11.235,32.068-21.211,49.457-29.389C186.649,18.277,191.347,16.212,196.13,14.249z"/>
	</g>
	<g>
		<path d="M260.158,260.182c-3.955,20.032-9.292,38.543-15.932,54.818c-3.364,8.256-7.006,15.788-10.904,22.564
			c48.281-17.568,86.653-55.939,104.223-104.221c-6.789,3.898-14.312,7.556-22.565,10.912
			C298.704,250.887,280.182,256.238,260.158,260.182z"/>
	</g>
	<g>
		<path d="M17.577,188.381c8.613-19.584,19.469-38.2,32.018-55.645C17.696,144.993,0.022,160.833,0,174c0,0.006,0,0.014,0,0.021
			c0,0.006,0,0.014,0,0.02c0.012,6.953,4.938,14.649,14.278,22.151C15.349,193.559,16.449,190.955,17.577,188.381z"/>
	</g>
	<g>
		<path d="M358.064,69.311c-5.613-28.453-26.672-49.021-54.649-56.003c-36.834-9.188-76.961,2.364-110.354,18.073
			c-26.938,12.693-51.782,29.615-74.285,49.044c-37.738,32.608-70.08,73.136-90.234,118.921
			c-14.793,33.602-25.396,74.557-13.392,110.638c4.777,14.322,13.414,27.118,25.696,35.998
			c15.096,10.905,33.956,14.688,52.316,13.82c23.188-1.094,45.547-8.103,66.603-17.9c4.889,4.015,9.719,6.091,14.22,6.091
			c17.174,0,38.905-29.997,51.278-82.516c-16.555,1.795-33.75,2.756-51.278,2.756c-17.53,0-34.72-0.961-51.275-2.756
			c8.299,35.224,20.815,60.316,33.332,73.018c-12.208,4.417-24.818,7.738-37.818,9.7c-30.419,4.553-67.891-1.449-80.978-33.198
			c-5.079-12.296-5.8-25.9-4.247-39.159c19.667,27.143,46.981,48.421,78.755,60.628c0.689-0.121,1.375-0.244,2.054-0.372
			c-3.578-6.402-6.947-13.434-10.062-21.093c-6.636-16.275-11.979-34.786-15.929-54.818c-17.363-3.417-33.586-7.888-48.197-13.34
			c3.39-10.494,7.679-20.693,12.593-30.578c9.04,3.339,19.162,6.406,30.313,9.021c-1.794-16.557-2.754-33.736-2.754-51.265
			c0-0.978,0.016-1.943,0.021-2.899c10.746-14.817,22.605-28.793,35.304-41.983c-1.4,13.998-2.184,28.986-2.184,44.882
			c0,20.75,1.324,39.949,3.63,57.441c17.49,2.307,36.69,3.616,57.441,3.616c20.752,0,39.951-1.31,57.445-3.616
			c2.301-17.492,3.626-36.691,3.626-57.441c0-20.753-1.325-39.95-3.626-57.445c-17.494-2.304-36.693-3.642-57.445-3.642
			c-15.865,0-30.807,0.795-44.8,2.175c7.269-6.904,14.732-13.621,22.38-20.082c6.23-5.276,12.69-10.343,19.35-15.196
			c1.021-0.006,2.04-0.021,3.07-0.021c17.528,0,34.723,0.953,51.278,2.753c-2.616-11.117-5.671-21.22-9-30.231
			c3.966-1.958,7.964-3.8,11.989-5.534c6.062-2.616,12.272-5.014,18.588-7.054c5.439,14.577,9.896,30.782,13.318,48.105
			c20.024,3.955,38.546,9.29,54.822,15.932c7.641,3.097,14.645,6.456,21.038,10.04c0.128-0.707,0.253-1.44,0.386-2.149
			c-12.181-31.613-33.316-58.78-60.298-78.412c2.581-0.295,5.182-0.487,7.782-0.587c16.882-0.675,32.26,3.264,45.582,13.796
			c-0.033-0.061-0.086-0.115-0.147-0.161c2.932,3.161,5.892,6.053,8.399,9.591c5.615,7.989,8.725,17.379,10.378,26.913
			c3.236,18.717,0.5,38.236-4.482,56.388c-1.539,5.648-3.358,11.196-5.361,16.676c-12.778-12.461-37.776-24.889-72.813-33.14
			c1.799,16.554,2.755,33.76,2.755,51.288c0,17.528-0.956,34.708-2.755,51.265c52.497-12.354,82.5-34.086,82.53-51.244
			c0-0.007,0-0.015,0-0.02c0-0.007,0-0.015,0-0.021c-0.009-4.514-2.102-9.34-6.12-14.23
			C354.802,131.822,364.095,99.816,358.064,69.311z"/>
	</g>
</g>
<g>
</g>
<g>
</g>
<g>
</g>
<g>
</g>
<g>
</g>
<g>
</g>
<g>
</g>
<g>
</g>
<g>
</g>
<g>
</g>
<g>
</g>
<g>
</g>
<g>
</g>
<g>
</g>
<g>
</g>
</svg>
